<svg xmlns="http://www.w3.org/2000/svg" xmlns:xlink="http://www.w3.org/1999/xlink" width="3840" zoomAndPan="magnify" viewBox="0 0 2880 1619.99993" height="2160" preserveAspectRatio="xMidYMid meet" version="1.0"><defs><clipPath id="2f0b3b4e7a"><path d="M 322 65 L 2021 65 L 2021 1562 L 322 1562 Z M 322 65 " clip-rule="nonzero"/></clipPath><clipPath id="262acbdd0a"><path d="M 54.148438 634.125 L 1611.246094 -229.367188 L 2288.875 992.566406 L 731.777344 1856.0625 Z M 54.148438 634.125 " clip-rule="nonzero"/></clipPath><clipPath id="9c9ba00cb6"><path d="M 522.480469 168.875 L 1820.730469 168.875 L 1820.730469 1467.125 L 522.480469 1467.125 Z M 522.480469 168.875 " clip-rule="nonzero"/></clipPath><clipPath id="1578c26904"><path d="M 635.476562 205.222656 L 1809.226562 205.222656 L 1809.226562 1332.472656 L 635.476562 1332.472656 Z M 635.476562 205.222656 " clip-rule="nonzero"/></clipPath><clipPath id="e59ea974d7"><path d="M 720.300781 419.492188 L 1625.550781 419.492188 L 1625.550781 1324.742188 L 720.300781 1324.742188 Z M 720.300781 419.492188 " clip-rule="nonzero"/></clipPath><clipPath id="9710f2f495"><path d="M 771.425781 609.066406 L 1473.425781 609.066406 L 1473.425781 1311.066406 L 771.425781 1311.066406 Z M 771.425781 609.066406 " clip-rule="nonzero"/></clipPath><clipPath id="dc08bc2a81"><path d="M 829.953125 787.601562 L 1346.703125 787.601562 L 1346.703125 1305.851562 L 829.953125 1305.851562 Z M 829.953125 787.601562 " clip-rule="nonzero"/></clipPath><clipPath id="68252f70b0"><path d="M 841 916 L 1184 916 L 1184 1302 L 841 1302 Z M 841 916 " clip-rule="nonzero"/></clipPath><clipPath id="215db8b076"><path d="M 771.429688 1019.332031 L 1026.796875 852.105469 L 1254.011719 1199.082031 L 998.640625 1366.308594 Z M 771.429688 1019.332031 " clip-rule="nonzero"/></clipPath><clipPath id="6c05379443"><path d="M 933 1081 L 1152 1081 L 1152 1300 L 933 1300 Z M 933 1081 " clip-rule="nonzero"/></clipPath><clipPath id="3db786581b"><path d="M 889.167969 1176.253906 L 1057.683594 1037.5625 L 1195.898438 1205.503906 L 1027.378906 1344.191406 Z M 889.167969 1176.253906 " clip-rule="nonzero"/></clipPath></defs><g clip-path="url(#2f0b3b4e7a)"><g clip-path="url(#262acbdd0a)"><path fill="#6e7783" d="M 832.695312 202.378906 C 402.714844 440.828125 205.839844 907.664062 392.960938 1245.09375 C 580.085938 1582.523438 1080.34375 1662.761719 1510.324219 1424.316406 C 1940.304688 1185.867188 2137.179688 719.027344 1950.058594 381.601562 C 1762.9375 44.171875 1262.675781 -36.066406 832.695312 202.378906 " fill-opacity="1" fill-rule="nonzero"/></g></g><g clip-path="url(#9c9ba00cb6)"><path fill="#ffffff" d="M 1171.605469 168.875 C 813.105469 168.875 522.480469 459.496094 522.480469 818 C 522.480469 1176.5 813.105469 1467.125 1171.605469 1467.125 C 1530.109375 1467.125 1820.730469 1176.5 1820.730469 818 C 1820.730469 459.496094 1530.109375 168.875 1171.605469 168.875 " fill-opacity="1" fill-rule="nonzero"/></g><g clip-path="url(#1578c26904)"><path fill="#9dc3c1" d="M 1222.351562 205.226562 C 898.230469 205.226562 635.476562 457.566406 635.476562 768.847656 C 635.476562 1080.128906 898.230469 1332.472656 1222.351562 1332.472656 C 1546.476562 1332.472656 1809.226562 1080.128906 1809.226562 768.847656 C 1809.226562 457.566406 1546.476562 205.226562 1222.351562 205.226562 " fill-opacity="1" fill-rule="nonzero"/></g><g clip-path="url(#e59ea974d7)"><path fill="#ffffff" d="M 1172.925781 419.492188 C 922.949219 419.492188 720.300781 622.136719 720.300781 872.117188 C 720.300781 1122.09375 922.949219 1324.742188 1172.925781 1324.742188 C 1422.902344 1324.742188 1625.550781 1122.09375 1625.550781 872.117188 C 1625.550781 622.136719 1422.902344 419.492188 1172.925781 419.492188 " fill-opacity="1" fill-rule="nonzero"/></g><g clip-path="url(#9710f2f495)"><path fill="#d8e6e7" d="M 1122.425781 609.066406 C 928.574219 609.066406 771.425781 766.214844 771.425781 960.066406 C 771.425781 1153.917969 928.574219 1311.066406 1122.425781 1311.066406 C 1316.277344 1311.066406 1473.425781 1153.917969 1473.425781 960.066406 C 1473.425781 766.214844 1316.277344 609.066406 1122.425781 609.066406 " fill-opacity="1" fill-rule="nonzero"/></g><g clip-path="url(#dc08bc2a81)"><path fill="#ffffff" d="M 1088.328125 787.601562 C 945.632812 787.601562 829.953125 903.617188 829.953125 1046.726562 C 829.953125 1189.835938 945.632812 1305.851562 1088.328125 1305.851562 C 1231.023438 1305.851562 1346.703125 1189.835938 1346.703125 1046.726562 C 1346.703125 903.617188 1231.023438 787.601562 1088.328125 787.601562 " fill-opacity="1" fill-rule="nonzero"/></g><g clip-path="url(#68252f70b0)"><g clip-path="url(#215db8b076)"><path fill="#77aaad" d="M 899.113281 935.722656 C 828.597656 981.898438 822.292969 1097.007812 885.035156 1192.820312 C 947.777344 1288.632812 1055.808594 1328.871094 1126.324219 1282.691406 C 1196.84375 1236.511719 1203.144531 1121.40625 1140.402344 1025.59375 C 1077.660156 929.78125 969.632812 889.542969 899.113281 935.722656 " fill-opacity="1" fill-rule="nonzero"/></g></g><g clip-path="url(#6c05379443)"><g clip-path="url(#3db786581b)"><path fill="#ffffff" d="M 973.425781 1106.910156 C 926.890625 1145.207031 920.109375 1213.84375 958.273438 1260.21875 C 996.441406 1306.597656 1065.105469 1313.144531 1111.636719 1274.847656 C 1158.171875 1236.550781 1164.953125 1167.910156 1126.789062 1121.535156 C 1088.621094 1075.160156 1019.960938 1068.613281 973.425781 1106.910156 " fill-opacity="1" fill-rule="nonzero"/></g></g></svg>